<?xml version="1.0" encoding="UTF-8"?>
<!DOCTYPE svg PUBLIC "-//W3C//DTD SVG 1.1//EN" "http://www.w3.org/Graphics/SVG/1.1/DTD/svg11.dtd">
<svg xmlns="http://www.w3.org/2000/svg" version="1.1" width="444px" height="562px" style="shape-rendering:geometricPrecision; text-rendering:geometricPrecision; image-rendering:optimizeQuality; fill-rule:evenodd; clip-rule:evenodd" xmlns:xlink="http://www.w3.org/1999/xlink">
<g><path style="opacity:0.004" fill="#fefffe" d="M 227.5,3.5 C 228.833,4.16667 228.833,4.16667 227.5,3.5 Z"/></g>
<g><path style="opacity:1" fill="#17898d" d="M 163.5,-0.5 C 169.833,-0.5 176.167,-0.5 182.5,-0.5C 193.765,3.16154 203.099,9.82821 210.5,19.5C 214.042,25.4176 217.708,31.2509 221.5,37C 224.303,37.755 226.97,37.4217 229.5,36C 238.688,29.5741 247.688,22.9075 256.5,16C 270.188,7.06733 284.188,6.40066 298.5,14C 318.461,32.1734 341.127,42.6734 366.5,45.5C 362.422,46.359 358.422,47.5257 354.5,49C 343.833,49.6667 333.167,49.6667 322.5,49C 310.329,45.2455 298.996,39.9122 288.5,33C 281.791,29.9798 275.124,29.9798 268.5,33C 257.679,41.5762 246.679,49.9095 235.5,58C 222.264,64.5879 211.098,62.0879 202,50.5C 196.825,40.9814 190.325,32.4814 182.5,25C 173.818,19.9057 165.818,20.9057 158.5,28C 149.598,36.2324 141.431,45.0657 134,54.5C 124.925,64.3511 113.759,69.6844 100.5,70.5C 92.8367,71.2237 85.8367,69.3904 79.5,65C 66.3635,54.8781 57.0301,42.0448 51.5,26.5C 56.8668,11.5573 66.0335,8.55729 79,17.5C 82.9287,27.0848 88.762,35.2514 96.5,42C 101.328,43.6428 105.994,42.9762 110.5,40C 120.17,29.9972 130.17,20.3306 140.5,11C 147.655,5.90824 155.322,2.0749 163.5,-0.5 Z"/></g>
<g><path style="opacity:0.004" fill="#fefffe" d="M 407.5,30.5 C 408.833,31.1667 408.833,31.1667 407.5,30.5 Z"/></g>
<g><path style="opacity:0.004" fill="#fefffe" d="M 98.5,33.5 C 99.8333,34.1667 99.8333,34.1667 98.5,33.5 Z"/></g>
<g><path style="opacity:0.004" fill="#fefffe" d="M 278.5,45.5 C 279.833,46.1667 279.833,46.1667 278.5,45.5 Z"/></g>
<g><path style="opacity:0.004" fill="#fefffe" d="M 377.5,49.5 C 378.833,50.1667 378.833,50.1667 377.5,49.5 Z"/></g>
<g><path style="opacity:0.004" fill="#fefffe" d="M 371.5,62.5 C 372.833,63.1667 372.833,63.1667 371.5,62.5 Z"/></g>
<g><path style="opacity:1" fill="#148a8d" d="M 286.5,173.5 C 285.268,176.184 285.268,179.017 286.5,182C 286.046,183.622 285.046,184.788 283.5,185.5C 282.268,184.855 280.935,184.689 279.5,185C 280.833,184 280.833,183 279.5,182C 280.167,181.667 280.833,181.333 281.5,181C 281.692,172.916 279.526,172.416 275,179.5C 274.64,177.579 273.806,175.912 272.5,174.5C 273.087,172.727 273.42,170.894 273.5,169C 272.045,165.246 270.711,161.412 269.5,157.5C 269.667,156.5 269.833,155.5 270,154.5C 272.04,152.959 274.207,151.626 276.5,150.5C 276.154,149.304 275.654,149.304 275,150.5C 274.508,149.451 274.674,148.451 275.5,147.5C 272.591,144.959 273.091,143.292 277,142.5C 277.167,141.333 277.333,140.167 277.5,139C 277.754,128.67 277.254,118.17 276,107.5C 274.957,103.774 274.457,104.107 274.5,108.5C 273.532,106.393 273.198,104.059 273.5,101.5C 259.929,98.9422 246.262,96.9422 232.5,95.5C 232.918,94.7784 233.584,94.2784 234.5,94C 215.157,92.0461 195.824,92.0461 176.5,94C 177.416,94.2784 178.082,94.7784 178.5,95.5C 157.832,97.5562 137.498,101.39 117.5,107C 115.349,107.265 113.682,108.265 112.5,110C 111.667,114.494 110.834,118.994 110,123.5C 107.637,151.956 105.804,180.289 104.5,208.5C 103.283,193.467 103.616,178.301 105.5,163C 105.418,159.765 104.918,156.598 104,153.5C 103.505,155.473 103.338,157.473 103.5,159.5C 101.396,159.799 99.396,159.466 97.5,158.5C 98.2132,156.224 98.7132,153.891 99,151.5C 99.3173,153.301 99.984,153.634 101,152.5C 101.961,147.442 103.794,142.942 106.5,139C 106.333,137.5 106.167,136 106,134.5C 104.497,134.165 103.164,134.165 102,134.5C 100.302,127.268 99.3024,119.935 99,112.5C 99.0722,122.777 97.7389,132.777 95,142.5C 94.0864,137.335 92.5864,132.335 90.5,127.5C 86.4369,134.403 84.9369,141.737 86,149.5C 84.5845,146.042 84.0845,142.375 84.5,138.5C 84.6294,129.297 85.2961,120.13 86.5,111C 86.3333,108.833 86.1667,106.667 86,104.5C 84.2061,99.916 82.7061,95.2494 81.5,90.5C 81.7092,89.0055 82.3759,87.8388 83.5,87C 140.964,68.7045 199.631,63.3712 259.5,71C 271.047,72.8509 282.38,75.5176 293.5,79C 295.654,80.3199 297.154,82.1532 298,84.5C 300.746,92.9757 301.746,101.642 301,110.5C 298.481,125.097 296.481,139.764 295,154.5C 288.908,159.352 286.075,165.686 286.5,173.5 Z"/></g>
<g><path style="opacity:0.624" fill="#4d9294" d="M 232.5,95.5 C 214.498,94.1837 196.498,94.1837 178.5,95.5C 178.082,94.7784 177.416,94.2784 176.5,94C 195.824,92.0461 215.157,92.0461 234.5,94C 233.584,94.2784 232.918,94.7784 232.5,95.5 Z"/></g>
<g><path style="opacity:0.004" fill="#fefffe" d="M 380.5,98.5 C 381.833,99.1667 381.833,99.1667 380.5,98.5 Z"/></g>
<g><path style="opacity:0.004" fill="#fefffe" d="M 2.5,101.5 C 3.83333,102.167 3.83333,102.167 2.5,101.5 Z"/></g>
<g><path style="opacity:0.004" fill="#fefffe" d="M 71.5,107.5 C 72.8333,108.167 72.8333,108.167 71.5,107.5 Z"/></g>
<g><path style="opacity:0.004" fill="#fefffe" d="M 404.5,107.5 C 405.833,108.167 405.833,108.167 404.5,107.5 Z"/></g>
<g><path style="opacity:0.004" fill="#fefffe" d="M 29.5,119.5 C 30.8333,120.167 30.8333,120.167 29.5,119.5 Z"/></g>
<g><path style="opacity:1" fill="#12898d" d="M 104.5,208.5 C 104.109,248.899 105.442,289.232 108.5,329.5C 107.672,335.987 107.172,342.654 107,349.5C 106.667,349.833 106.333,350.167 106,350.5C 105.667,349.167 105.333,347.833 105,346.5C 104.577,349.615 104.077,352.948 103.5,356.5C 106.598,356.587 106.932,356.087 104.5,355C 105.006,352.306 106.173,350.806 108,350.5C 108.238,354.222 108.738,357.889 109.5,361.5C 108.998,362.521 108.332,362.688 107.5,362C 106.12,360.676 105.786,359.343 106.5,358C 105.552,357.517 104.552,357.351 103.5,357.5C 102.554,362.199 102.554,366.866 103.5,371.5C 100.856,371.84 98.5225,371.173 96.5,369.5C 95.8333,369.833 95.1667,370.167 94.5,370.5C 93.1667,368.5 91.8333,366.5 90.5,364.5C 89.8165,364.863 89.1499,365.196 88.5,365.5C 85.6562,340.718 83.4896,315.718 82,290.5C 81.3333,248.5 81.3333,206.5 82,164.5C 82.4147,155.643 83.248,146.976 84.5,138.5C 84.0845,142.375 84.5845,146.042 86,149.5C 84.9369,141.737 86.4369,134.403 90.5,127.5C 92.5864,132.335 94.0864,137.335 95,142.5C 97.7389,132.777 99.0722,122.777 99,112.5C 99.3024,119.935 100.302,127.268 102,134.5C 103.164,134.165 104.497,134.165 106,134.5C 106.167,136 106.333,137.5 106.5,139C 103.794,142.942 101.961,147.442 101,152.5C 99.984,153.634 99.3173,153.301 99,151.5C 98.7132,153.891 98.2132,156.224 97.5,158.5C 99.396,159.466 101.396,159.799 103.5,159.5C 103.338,157.473 103.505,155.473 104,153.5C 104.918,156.598 105.418,159.765 105.5,163C 103.616,178.301 103.283,193.467 104.5,208.5 Z"/></g>
<g><path style="opacity:0.004" fill="#fefffe" d="M 347.5,143.5 C 348.833,144.167 348.833,144.167 347.5,143.5 Z"/></g>
<g><path style="opacity:1" fill="#16898d" d="M 233.5,369.5 C 231.468,364.476 232.801,360.476 237.5,357.5C 236.902,356.205 236.402,354.872 236,353.5C 234.869,354.604 234.035,354.271 233.5,352.5C 236.668,350.734 240.001,349.901 243.5,350C 243.167,350.333 242.833,350.667 242.5,351C 244.22,352.434 246.22,353.267 248.5,353.5C 256.737,353.291 265.071,352.791 273.5,352C 275.305,347.791 277.638,343.958 280.5,340.5C 276.055,338.457 271.389,337.29 266.5,337C 267.696,336.346 267.696,335.846 266.5,335.5C 264.531,337.059 262.698,338.726 261,340.5C 259.732,340.384 258.398,340.051 257,339.5C 247.929,341.864 238.763,343.364 229.5,344C 228.167,344.667 228.167,345.333 229.5,346C 228.069,346.465 226.903,347.299 226,348.5C 225.586,348.043 225.086,347.709 224.5,347.5C 222.541,348.748 221.041,350.415 220,352.5C 218.289,351.419 216.789,351.752 215.5,353.5C 219.058,347.203 224.391,343.036 231.5,341C 240.366,338.76 249.366,337.427 258.5,337C 262.649,331.684 267.315,326.851 272.5,322.5C 274.432,323.52 276.432,323.687 278.5,323C 285.338,320.297 292.005,317.297 298.5,314C 304.234,312.088 310.067,310.588 316,309.5C 322.618,301.549 329.951,294.216 338,287.5C 340.773,283.185 342.773,278.518 344,273.5C 344.713,252.884 348.547,232.884 355.5,213.5C 347.398,201.699 343.898,188.699 345,174.5C 348.005,165.46 352.505,157.293 358.5,150C 351.134,132.585 346.967,114.418 346,95.5C 343.906,92.1242 341.072,89.6242 337.5,88C 331.115,87.4648 324.781,87.4648 318.5,88C 313.656,81.5987 309.656,74.7654 306.5,67.5C 306.608,66.5581 306.941,65.7247 307.5,65C 325.589,58.7561 342.589,60.7561 358.5,71C 362.71,74.2084 366.21,78.0418 369,82.5C 370.963,94.9085 373.296,107.242 376,119.5C 379.268,130.037 383.101,140.37 387.5,150.5C 382.947,158.596 378.113,166.596 373,174.5C 372.333,178.833 372.333,183.167 373,187.5C 376.349,194.365 379.849,201.198 383.5,208C 380.256,218.477 377.089,228.977 374,239.5C 372.427,252.178 370.76,264.844 369,277.5C 366.027,291.518 358.86,302.685 347.5,311C 344.865,312.961 343.031,315.461 342,318.5C 339.489,321.343 336.656,323.843 333.5,326C 326.88,327.791 320.213,329.458 313.5,331C 307.573,333.964 301.573,336.964 295.5,340C 292.167,340.333 288.833,340.667 285.5,341C 281.833,345.333 278.167,349.667 274.5,354C 264.262,353.73 254.262,355.063 244.5,358C 239.353,360.495 235.686,364.329 233.5,369.5 Z"/></g>
<g><path style="opacity:0.004" fill="#fefffe" d="M 422.5,173.5 C 423.833,174.167 423.833,174.167 422.5,173.5 Z"/></g>
<g><path style="opacity:0.004" fill="#fefffe" d="M 50.5,187.5 C 51.8333,188.167 51.8333,188.167 50.5,187.5 Z"/></g>
<g><path style="opacity:0.004" fill="#fefffe" d="M 44.5,188.5 C 45.8333,189.167 45.8333,189.167 44.5,188.5 Z"/></g>
<g><path style="opacity:1" fill="#15898d" d="M 286.5,173.5 C 287.648,177.981 287.815,182.648 287,187.5C 278.893,192.273 272.893,198.94 269,207.5C 268.461,210.529 267.794,213.529 267,216.5C 264,220.833 261,225.167 258,229.5C 252.615,244.822 246.615,259.822 240,274.5C 237.578,278.344 234.911,282.01 232,285.5C 228.274,302.341 223.941,319.007 219,335.5C 217.541,337.432 216.375,339.432 215.5,341.5C 215.133,335.293 213.299,334.96 210,340.5C 209.64,338.579 208.806,336.912 207.5,335.5C 208.348,333.591 208.682,331.591 208.5,329.5C 207.5,329.5 206.5,329.5 205.5,329.5C 205.949,327.023 205.283,325.023 203.5,323.5C 201.183,325.647 199.85,328.314 199.5,331.5C 197.857,331.52 196.524,330.853 195.5,329.5C 194.042,331.138 193.708,332.805 194.5,334.5C 193.675,335.386 192.675,335.719 191.5,335.5C 191.463,338.702 189.797,340.368 186.5,340.5C 189.916,334.931 193.082,329.265 196,323.5C 199.69,307.582 203.024,291.582 206,275.5C 212.17,268.991 217.17,261.658 221,253.5C 224.821,239.367 229.821,225.7 236,212.5C 238.432,209.312 241.099,206.312 244,203.5C 244.04,196.845 245.874,190.845 249.5,185.5C 253.777,182.703 257.777,179.536 261.5,176C 257.607,163.558 260.774,153.391 271,145.5C 273.124,133.268 274.291,120.935 274.5,108.5C 274.457,104.107 274.957,103.774 276,107.5C 277.254,118.17 277.754,128.67 277.5,139C 277.333,140.167 277.167,141.333 277,142.5C 273.091,143.292 272.591,144.959 275.5,147.5C 274.674,148.451 274.508,149.451 275,150.5C 275.654,149.304 276.154,149.304 276.5,150.5C 274.207,151.626 272.04,152.959 270,154.5C 269.833,155.5 269.667,156.5 269.5,157.5C 270.711,161.412 272.045,165.246 273.5,169C 273.42,170.894 273.087,172.727 272.5,174.5C 273.806,175.912 274.64,177.579 275,179.5C 279.526,172.416 281.692,172.916 281.5,181C 280.833,181.333 280.167,181.667 279.5,182C 280.833,183 280.833,184 279.5,185C 280.935,184.689 282.268,184.855 283.5,185.5C 285.046,184.788 286.046,183.622 286.5,182C 285.268,179.017 285.268,176.184 286.5,173.5 Z"/></g>
<g><path style="opacity:0.004" fill="#fefffe" d="M 347.5,222.5 C 348.833,223.167 348.833,223.167 347.5,222.5 Z"/></g>
<g><path style="opacity:0.004" fill="#fefffe" d="M 35.5,247.5 C 36.8333,248.167 36.8333,248.167 35.5,247.5 Z"/></g>
<g><path style="opacity:1" fill="#2a8b8e" d="M -0.5,291.5 C -0.5,287.833 -0.5,284.167 -0.5,280.5C 1.49541,276.795 4.49541,273.961 8.5,272C 22.9298,267.472 37.2632,267.805 51.5,273C 56.6589,275.757 59.6589,280.09 60.5,286C 60.3357,292.665 57.5023,294.165 52,290.5C 51.6261,283.277 47.7928,279.444 40.5,279C 30.2807,277.751 20.2807,278.584 10.5,281.5C 9.08102,283.958 8.08102,286.625 7.5,289.5C 5.057,291.055 2.39034,291.722 -0.5,291.5 Z"/></g>
<g><path style="opacity:1" fill="#248a8d" d="M 443.5,294.5 C 443.5,296.5 443.5,298.5 443.5,300.5C 441.833,300.5 440.167,300.5 438.5,300.5C 438.5,301.5 438.5,302.5 438.5,303.5C 435.193,303.937 432.193,303.27 429.5,301.5C 413.504,300.6 397.504,299.767 381.5,299C 381.043,298.586 380.709,298.086 380.5,297.5C 385.624,294.393 390.957,291.56 396.5,289C 410.435,283.409 424.435,277.909 438.5,272.5C 438.647,275.443 439.313,278.276 440.5,281C 439.381,282.876 437.714,283.709 435.5,283.5C 435.149,288.04 437.149,290.54 441.5,291C 442.085,292.302 442.751,293.469 443.5,294.5 Z M 427.5,290.5 C 424.615,290.806 421.948,290.473 419.5,289.5C 422.157,289.838 424.49,289.171 426.5,287.5C 427.386,288.325 427.719,289.325 427.5,290.5 Z"/></g>
<g><path style="opacity:0.008" fill="#e9fcfc" d="M 419.5,289.5 C 421.948,290.473 424.615,290.806 427.5,290.5C 424.36,291.641 421.027,291.808 417.5,291C 418.044,290.283 418.711,289.783 419.5,289.5 Z"/></g>
<g><path style="opacity:0.004" fill="#fefffe" d="M 17.5,295.5 C 18.8333,296.167 18.8333,296.167 17.5,295.5 Z"/></g>
<g><path style="opacity:0.004" fill="#fefffe" d="M 362.5,301.5 C 363.833,302.167 363.833,302.167 362.5,301.5 Z"/></g>
<g><path style="opacity:1" fill="#238a8d" d="M -0.5,328.5 C -0.5,325.167 -0.5,321.833 -0.5,318.5C 1.16667,318.5 2.83333,318.5 4.5,318.5C 4.5,316.167 4.5,313.833 4.5,311.5C 2.7839,311.371 1.11723,311.038 -0.5,310.5C -0.5,307.5 -0.5,304.5 -0.5,301.5C 3.74432,300.188 8.07765,299.688 12.5,300C 13.0611,301.676 14.0611,303.009 15.5,304C 30.4948,307.278 45.4948,310.445 60.5,313.5C 60.5,314.833 60.5,316.167 60.5,317.5C 44.7294,320.063 29.0627,323.23 13.5,327C 8.86266,327.829 4.196,328.329 -0.5,328.5 Z M 13.5,313.5 C 24.1495,314.494 24.1495,315.494 13.5,316.5C 13.5,315.5 13.5,314.5 13.5,313.5 Z"/></g>
<g><path style="opacity:1" fill="#238a8d" d="M 395.5,311.5 C 400.566,311.34 405.566,311.84 410.5,313C 413.66,313.991 416.16,315.824 418,318.5C 425.322,315.771 432.822,313.937 440.5,313C 441.904,315.978 442.237,318.978 441.5,322C 435.833,323.667 430.167,325.333 424.5,327C 430.171,327.531 435.838,328.031 441.5,328.5C 441.664,331.187 441.497,333.854 441,336.5C 440.196,337.804 439.029,338.471 437.5,338.5C 418.862,337.054 400.195,335.887 381.5,335C 378.516,322.323 383.183,314.489 395.5,311.5 Z M 412.5,324.5 C 412.611,325.117 412.944,325.617 413.5,326C 410.183,326.498 406.85,326.665 403.5,326.5C 399.486,326.666 395.486,326.499 391.5,326C 391.167,325.667 390.833,325.333 390.5,325C 395.25,321.592 400.584,320.592 406.5,322C 408.407,323.122 410.407,323.955 412.5,324.5 Z"/></g>
<g><path style="opacity:0.122" fill="#a8e1ea" d="M 412.5,324.5 C 414.048,324.821 414.715,325.821 414.5,327.5C 410.629,327.815 406.962,327.482 403.5,326.5C 406.85,326.665 410.183,326.498 413.5,326C 412.944,325.617 412.611,325.117 412.5,324.5 Z"/></g>
<g><path style="opacity:0.004" fill="#fefffe" d="M 35.5,334.5 C 36.8333,335.167 36.8333,335.167 35.5,334.5 Z"/></g>
<g><path style="opacity:1" fill="#15898d" d="M 233.5,369.5 C 233.239,375.5 231.739,381.167 229,386.5C 215.252,399.65 201.752,413.15 188.5,427C 182.625,426.782 176.958,425.449 171.5,423C 149.616,419.708 128.282,421.708 107.5,429C 105.413,429.792 103.579,430.959 102,432.5C 100.644,431.62 99.1439,431.286 97.5,431.5C 95.4165,424.929 94.7499,418.263 95.5,411.5C 103.663,407.561 112.329,405.228 121.5,404.5C 128.053,404.06 134.387,403.06 140.5,401.5C 144.988,400.834 149.654,400.501 154.5,400.5C 163.887,400.68 173.22,401.18 182.5,402C 192.738,393.431 201.904,383.931 210,373.5C 211.423,366.591 213.257,359.924 215.5,353.5C 216.789,351.752 218.289,351.419 220,352.5C 221.041,350.415 222.541,348.748 224.5,347.5C 225.086,347.709 225.586,348.043 226,348.5C 226.903,347.299 228.069,346.465 229.5,346C 228.167,345.333 228.167,344.667 229.5,344C 238.763,343.364 247.929,341.864 257,339.5C 258.398,340.051 259.732,340.384 261,340.5C 262.698,338.726 264.531,337.059 266.5,335.5C 267.696,335.846 267.696,336.346 266.5,337C 271.389,337.29 276.055,338.457 280.5,340.5C 277.638,343.958 275.305,347.791 273.5,352C 265.071,352.791 256.737,353.291 248.5,353.5C 246.22,353.267 244.22,352.434 242.5,351C 242.833,350.667 243.167,350.333 243.5,350C 240.001,349.901 236.668,350.734 233.5,352.5C 234.035,354.271 234.869,354.604 236,353.5C 236.402,354.872 236.902,356.205 237.5,357.5C 232.801,360.476 231.468,364.476 233.5,369.5 Z"/></g>
<g><path style="opacity:1" fill="#268b8e" d="M 48.5,334.5 C 52.4367,334.207 56.27,334.54 60,335.5C 61.5616,342.933 60.395,349.766 56.5,356C 48.2119,361.102 39.7119,361.602 31,357.5C 28.8439,358.985 26.6772,360.485 24.5,362C 6.62373,365.96 -1.37627,358.793 0.5,340.5C 16.6297,338.432 32.6297,336.432 48.5,334.5 Z M 19.5,347.5 C 20.8333,347.5 22.1667,347.5 23.5,347.5C 23.7135,349.144 23.3802,350.644 22.5,352C 20.3513,352.579 18.1846,353.079 16,353.5C 13.63,353.4 11.7966,352.4 10.5,350.5C 13.4247,349.047 16.4247,348.047 19.5,347.5 Z M 48.5,344.5 C 49.5,344.5 50.5,344.5 51.5,344.5C 51.67,345.822 51.3366,346.989 50.5,348C 44.611,351.468 38.9443,351.302 33.5,347.5C 38.5336,346.085 43.5336,345.085 48.5,344.5 Z"/></g>
<g><path style="opacity:1" fill="#178a8d" d="M 215.5,341.5 C 206.085,362.408 190.418,376.574 168.5,384C 160.631,386.507 152.631,388.507 144.5,390C 126.806,391.641 109.139,393.475 91.5,395.5C 90.0598,385.553 89.0598,375.553 88.5,365.5C 89.1499,365.196 89.8165,364.863 90.5,364.5C 91.8333,366.5 93.1667,368.5 94.5,370.5C 95.1667,370.167 95.8333,369.833 96.5,369.5C 98.5225,371.173 100.856,371.84 103.5,371.5C 102.554,366.866 102.554,362.199 103.5,357.5C 104.552,357.351 105.552,357.517 106.5,358C 105.786,359.343 106.12,360.676 107.5,362C 108.332,362.688 108.998,362.521 109.5,361.5C 108.738,357.889 108.238,354.222 108,350.5C 106.173,350.806 105.006,352.306 104.5,355C 106.932,356.087 106.598,356.587 103.5,356.5C 104.077,352.948 104.577,349.615 105,346.5C 105.333,347.833 105.667,349.167 106,350.5C 106.333,350.167 106.667,349.833 107,349.5C 107.172,342.654 107.672,335.987 108.5,329.5C 109.067,342.915 110.734,356.248 113.5,369.5C 133.668,367.838 152.668,362.338 170.5,353C 176.571,349.761 181.904,345.594 186.5,340.5C 189.797,340.368 191.463,338.702 191.5,335.5C 192.675,335.719 193.675,335.386 194.5,334.5C 193.708,332.805 194.042,331.138 195.5,329.5C 196.524,330.853 197.857,331.52 199.5,331.5C 199.85,328.314 201.183,325.647 203.5,323.5C 205.283,325.023 205.949,327.023 205.5,329.5C 206.5,329.5 207.5,329.5 208.5,329.5C 208.682,331.591 208.348,333.591 207.5,335.5C 208.806,336.912 209.64,338.579 210,340.5C 213.299,334.96 215.133,335.293 215.5,341.5 Z"/></g>
<g><path style="opacity:0.122" fill="#94c4c2" d="M 388.5,361.5 C 385.467,361.132 382.8,361.798 380.5,363.5C 380.5,362.5 380.5,361.5 380.5,360.5C 383.385,360.194 386.052,360.527 388.5,361.5 Z"/></g>
<g><path style="opacity:0.004" fill="#fefffe" d="M 413.5,360.5 C 414.833,361.167 414.833,361.167 413.5,360.5 Z"/></g>
<g><path style="opacity:1" fill="#278c8f" d="M 380.5,363.5 C 382.8,361.798 385.467,361.132 388.5,361.5C 396.833,361.5 405.167,361.5 413.5,361.5C 418.989,362.681 424.656,363.181 430.5,363C 431.956,362.577 432.456,361.744 432,360.5C 430.601,359.773 429.101,359.273 427.5,359C 411.79,358.243 396.124,357.076 380.5,355.5C 380.46,352.119 380.793,348.786 381.5,345.5C 398.456,347.562 415.456,349.062 432.5,350C 441.923,354.206 443.923,360.706 438.5,369.5C 434.822,371.754 430.822,373.087 426.5,373.5C 411.218,371.769 395.884,370.769 380.5,370.5C 380.5,368.167 380.5,365.833 380.5,363.5 Z"/></g>
<g><path style="opacity:1" fill="#288a8e" d="M 59.5,363.5 C 61.288,363.215 62.9547,363.548 64.5,364.5C 65.7946,367.366 65.7946,370.199 64.5,373C 45.7438,375.344 27.0772,378.177 8.5,381.5C 7.83333,381.167 7.16667,380.833 6.5,380.5C 5.06831,377.67 4.73498,374.836 5.5,372C 23.6335,369.195 41.6335,366.361 59.5,363.5 Z"/></g>
<g><path style="opacity:0.004" fill="#fefffe" d="M 413.5,388.5 C 414.833,389.167 414.833,389.167 413.5,388.5 Z"/></g>
<g><path style="opacity:0.043" fill="#a2d2d4" d="M 69.5,387.5 C 70.1239,387.917 70.4573,388.584 70.5,389.5C 70.2528,390.713 69.5862,391.38 68.5,391.5C 69.2341,390.292 69.5674,388.959 69.5,387.5 Z"/></g>
<g><path style="opacity:1" fill="#268a8c" d="M 69.5,387.5 C 69.5674,388.959 69.2341,390.292 68.5,391.5C 52.7043,395.278 36.7043,398.778 20.5,402C 24.3909,409.306 22.0576,412.472 13.5,411.5C 12.8618,406.138 11.5284,400.971 9.5,396C 10.3279,395.085 11.3279,394.419 12.5,394C 30.6767,389.747 48.8434,385.58 67,381.5C 68.6625,383.158 69.4959,385.158 69.5,387.5 Z"/></g>
<g><path style="opacity:1" fill="#23898c" d="M 413.5,389.5 C 420.124,391.01 426.79,392.843 433.5,395C 434.523,397.774 434.523,400.607 433.5,403.5C 428.093,403.199 422.76,402.366 417.5,401C 406.366,398.608 395.366,395.774 384.5,392.5C 382.914,394.173 382.247,396.173 382.5,398.5C 377.875,398.875 375.209,396.875 374.5,392.5C 375.853,387.236 377.02,381.903 378,376.5C 383.999,374.922 386.832,377.255 386.5,383.5C 395.456,385.684 404.456,387.684 413.5,389.5 Z"/></g>
<g><path style="opacity:0.118" fill="#a9d4ce" d="M 70.5,402.5 C 71.9473,401.115 72.9473,401.448 73.5,403.5C 72.609,402.89 71.609,402.557 70.5,402.5 Z"/></g>
<g><path style="opacity:0.031" fill="#dbf0f1" d="M 369.5,403.5 C 368.391,403.557 367.391,403.89 366.5,404.5C 367.053,402.448 368.053,402.115 369.5,403.5 Z"/></g>
<g><path style="opacity:0.439" fill="#72afb1" d="M 140.5,401.5 C 134.387,403.06 128.053,404.06 121.5,404.5C 123.933,403.587 126.433,402.587 129,401.5C 132.727,401.959 136.561,401.959 140.5,401.5 Z"/></g>
<g><path style="opacity:0.004" fill="#fefffe" d="M 362.5,412.5 C 363.833,413.167 363.833,413.167 362.5,412.5 Z"/></g>
<g><path style="opacity:1" fill="#238a8c" d="M 70.5,402.5 C 71.609,402.557 72.609,402.89 73.5,403.5C 79.4694,412.803 78.1361,420.969 69.5,428C 56.7228,436.392 42.7228,440.058 27.5,439C 21.2674,434.862 18.2674,429.195 18.5,422C 35.7597,415.199 53.093,408.699 70.5,402.5 Z M 64.5,414.5 C 67.2476,414.402 67.9143,415.402 66.5,417.5C 58.9074,422.882 50.5741,427.048 41.5,430C 37.3092,430.922 33.3092,430.588 29.5,429C 41.3023,424.598 52.969,419.765 64.5,414.5 Z"/></g>
<g><path style="opacity:0.035" fill="#97dde1" d="M 64.5,414.5 C 65.5676,413.566 66.901,413.232 68.5,413.5C 68.8432,415.483 68.1765,416.817 66.5,417.5C 67.9143,415.402 67.2476,414.402 64.5,414.5 Z"/></g>
<g><path style="opacity:0.004" fill="#fefffe" d="M 284.5,429.5 C 285.833,430.167 285.833,430.167 284.5,429.5 Z"/></g>
<g><path style="opacity:1" fill="#238a8d" d="M 369.5,403.5 C 387.836,409.001 406.003,415.001 424,421.5C 424.483,422.448 424.649,423.448 424.5,424.5C 414.18,425.998 403.846,427.498 393.5,429C 401.175,431.338 408.842,433.838 416.5,436.5C 416.833,437.167 417.167,437.833 417.5,438.5C 416.811,440.444 416.311,442.444 416,444.5C 415.275,445.059 414.442,445.392 413.5,445.5C 395.141,439.825 376.808,433.992 358.5,428C 357.663,426.989 357.33,425.822 357.5,424.5C 367.104,422.612 376.77,421.112 386.5,420C 379.626,417.066 372.626,414.399 365.5,412C 364.833,411.333 364.167,410.667 363.5,410C 364.229,407.942 365.229,406.109 366.5,404.5C 367.391,403.89 368.391,403.557 369.5,403.5 Z"/></g>
<g><path style="opacity:1" fill="#278a8c" d="M 353.5,431.5 C 356.167,431.833 358.833,432.167 361.5,432.5C 362.172,435.908 361.172,438.575 358.5,440.5C 363.508,443.845 368.508,447.178 373.5,450.5C 375.172,448.329 377.005,446.329 379,444.5C 380.63,445.713 382.464,446.546 384.5,447C 385.022,447.561 385.355,448.228 385.5,449C 384.013,451.411 383.179,453.911 383,456.5C 386.234,459.015 389.567,461.349 393,463.5C 394.337,460.998 396.171,458.998 398.5,457.5C 400.856,458.543 403.19,459.543 405.5,460.5C 402.996,466.339 399.33,471.339 394.5,475.5C 388.399,471.742 382.232,468.075 376,464.5C 371.119,465.341 367.952,463.174 366.5,458C 359.885,454.291 353.552,450.124 347.5,445.5C 346.572,444.232 346.405,442.899 347,441.5C 349.426,438.309 351.593,434.975 353.5,431.5 Z"/></g>
<g><path style="opacity:1" fill="#278b8d" d="M 76.5,432.5 C 87.8451,431.347 93.0118,436.347 92,447.5C 90.5787,450.009 88.9121,452.343 87,454.5C 79.411,459.761 71.5776,464.594 63.5,469C 56.06,472.616 48.3933,473.283 40.5,471C 35.4029,465.31 35.4029,459.477 40.5,453.5C 51.0679,443.908 63.0679,436.908 76.5,432.5 Z M 78.5,441.5 C 79.8333,441.5 81.1667,441.5 82.5,441.5C 82.5792,442.93 82.2458,444.264 81.5,445.5C 79.3501,447.149 77.3501,448.982 75.5,451C 66.7254,456.595 57.392,461.095 47.5,464.5C 45.8987,463.965 45.3987,462.965 46,461.5C 55.9741,453.43 66.8075,446.763 78.5,441.5 Z"/></g>
<g><path style="opacity:1" fill="#258a8d" d="M 340.5,450.5 C 342.09,450.628 343.423,451.295 344.5,452.5C 355.632,467.939 366.632,483.439 377.5,499C 377.355,499.772 377.022,500.439 376.5,501C 374.08,500.975 371.747,500.309 369.5,499C 354.33,489.914 338.997,481.081 323.5,472.5C 322.167,471.167 322.167,469.833 323.5,468.5C 324.957,466.38 326.957,465.047 329.5,464.5C 335.011,467.121 340.344,470.121 345.5,473.5C 345.833,473.167 346.167,472.833 346.5,472.5C 342.236,467.739 338.569,462.573 335.5,457C 336.985,454.683 338.652,452.516 340.5,450.5 Z"/></g>
<g><path style="opacity:0.004" fill="#fefffe" d="M 281.5,489.5 C 282.833,490.167 282.833,490.167 281.5,489.5 Z"/></g>
<g><path style="opacity:1" fill="#298c8e" d="M 106.5,460.5 C 115.566,462.412 120.066,468.078 120,477.5C 117.428,484.415 113.595,490.582 108.5,496C 103.546,499.285 98.8797,502.952 94.5,507C 82.1188,513.697 72.9522,510.863 67,498.5C 80.3821,486.082 93.5488,473.415 106.5,460.5 Z M 108.5,473.5 C 109.376,473.369 110.043,473.702 110.5,474.5C 104.239,486.64 94.9061,495.64 82.5,501.5C 81.5,501 80.5,500.5 79.5,500C 89.5777,491.626 99.2443,482.793 108.5,473.5 Z"/></g>
<g><path style="opacity:1" fill="#298b8d" d="M 320.5,514.5 C 319.391,514.443 318.391,514.11 317.5,513.5C 316.542,513.047 315.708,512.381 315,511.5C 314.783,507.4 313.449,503.733 311,500.5C 306.89,496.232 303.39,491.566 300.5,486.5C 300.637,484.893 301.304,483.559 302.5,482.5C 305.341,480.914 308.007,479.08 310.5,477C 314.169,476.464 316.836,477.964 318.5,481.5C 317.699,484.133 316.033,485.967 313.5,487C 316.629,491.96 320.296,496.46 324.5,500.5C 329.557,494.683 333.224,495.516 335.5,503C 333.672,504.663 332.005,506.496 330.5,508.5C 333,512.167 335.5,515.833 338,519.5C 339.896,517.47 342.063,515.803 344.5,514.5C 346.89,516.267 348.557,518.6 349.5,521.5C 345.223,525.312 340.557,528.645 335.5,531.5C 330.718,525.573 325.718,519.907 320.5,514.5 Z"/></g>
<g><path style="opacity:0.145" fill="#8bc3c5" d="M 197.5,503.5 C 194.833,503.5 192.167,503.5 189.5,503.5C 189.768,505.099 189.434,506.432 188.5,507.5C 188.5,505.833 188.5,504.167 188.5,502.5C 191.713,502.19 194.713,502.523 197.5,503.5 Z"/></g>
<g><path style="opacity:1" fill="#268a8d" d="M 268.5,557.5 C 266.847,557.66 265.514,558.326 264.5,559.5C 260.834,561.046 258.668,559.712 258,555.5C 253.913,538.475 249.747,521.142 245.5,503.5C 251.076,501.936 256.743,501.436 262.5,502C 267.43,504.052 270.93,507.552 273,512.5C 276.036,519.276 276.202,526.109 273.5,533C 277.333,539.248 281,545.582 284.5,552C 282.005,555.754 278.672,556.921 274.5,555.5C 271.945,551.035 269.112,546.702 266,542.5C 267.112,547.375 267.946,552.375 268.5,557.5 Z M 260.5,523.5 C 260.598,521.447 259.931,519.78 258.5,518.5C 257.263,508.408 259.096,508.074 264,517.5C 265.243,521.675 265.41,525.841 264.5,530C 263.833,532 263.167,532 262.5,530C 261.726,527.846 261.059,525.679 260.5,523.5 Z"/></g>
<g><path style="opacity:0.004" fill="#fefffe" d="M 371.5,505.5 C 372.833,506.167 372.833,506.167 371.5,505.5 Z"/></g>
<g><path style="opacity:1" fill="#258a8d" d="M 128.5,476.5 C 132.488,479.149 136.488,481.816 140.5,484.5C 141.631,486.074 141.798,487.741 141,489.5C 140.077,490.759 139.243,492.092 138.5,493.5C 136.267,492.258 134.101,490.924 132,489.5C 129.385,493.783 126.385,497.783 123,501.5C 122.333,502.5 122.333,503.5 123,504.5C 128.684,507.905 128.684,511.572 123,515.5C 121.217,514.047 119.217,513.047 117,512.5C 115.893,512.585 114.893,512.919 114,513.5C 112.365,516.632 110.532,519.632 108.5,522.5C 109.655,523.95 111.155,524.95 113,525.5C 113.99,529.342 112.823,532.342 109.5,534.5C 104.284,531.268 99.2843,527.768 94.5,524C 98.2786,517.888 102.445,512.055 107,506.5C 107.353,505.328 107.187,504.162 106.5,503C 107.317,501.51 108.15,500.01 109,498.5C 110.751,497.826 112.417,497.493 114,497.5C 118.35,490.123 123.183,483.123 128.5,476.5 Z"/></g>
<g><path style="opacity:0.004" fill="#fefffe" d="M 128.5,508.5 C 129.833,509.167 129.833,509.167 128.5,508.5 Z"/></g>
<g><path style="opacity:0.008" fill="#e1f0f0" d="M 317.5,513.5 C 318.391,514.11 319.391,514.443 320.5,514.5C 319.053,515.885 318.053,515.552 317.5,513.5 Z"/></g>
<g><path style="opacity:0.004" fill="#fefffe" d="M 116.5,516.5 C 117.833,517.167 117.833,517.167 116.5,516.5 Z"/></g>
<g><path style="opacity:0.176" fill="#a9e7e6" d="M 237.5,504.5 C 232.5,504.5 227.5,504.5 222.5,504.5C 222.826,513.017 222.493,521.35 221.5,529.5C 221.5,520.833 221.5,512.167 221.5,503.5C 227.026,503.179 232.36,503.512 237.5,504.5 Z"/></g>
<g><path style="opacity:0.031" fill="#b6e7e9" d="M 258.5,518.5 C 259.931,519.78 260.598,521.447 260.5,523.5C 259.069,522.22 258.402,520.553 258.5,518.5 Z"/></g>
<g><path style="opacity:1" fill="#278a8c" d="M 161.5,495.5 C 166.833,496.5 172.167,497.5 177.5,498.5C 177.704,501.518 178.037,504.518 178.5,507.5C 175.751,507.726 173.084,507.393 170.5,506.5C 170.167,507 169.833,507.5 169.5,508C 168.331,513.196 166.664,518.196 164.5,523C 167.063,524.079 169.729,524.579 172.5,524.5C 173.931,533.94 170.765,536.273 163,531.5C 161.333,537.833 159.667,544.167 158,550.5C 157.592,552.41 156.425,553.41 154.5,553.5C 151.424,553.271 149.091,551.937 147.5,549.5C 148.953,543.46 150.62,537.46 152.5,531.5C 150.028,528.014 150.028,524.514 152.5,521C 153.448,520.517 154.448,520.351 155.5,520.5C 157.605,512.215 159.605,503.882 161.5,495.5 Z"/></g>
<g><path style="opacity:0.004" fill="#fefffe" d="M 65.5,526.5 C 66.8333,527.167 66.8333,527.167 65.5,526.5 Z"/></g>
<g><path style="opacity:1" fill="#2a8a8c" d="M 290.5,488.5 C 296.168,491.626 296.502,495.126 291.5,499C 298.167,513.495 305.501,527.662 313.5,541.5C 311.511,544.166 308.844,545.833 305.5,546.5C 297.109,533.054 289.443,519.054 282.5,504.5C 280.328,504.324 277.995,504.157 275.5,504C 273.201,501.202 273.201,498.535 275.5,496C 280.913,493.961 285.913,491.461 290.5,488.5 Z"/></g>
<g><path style="opacity:0.004" fill="#fefffe" d="M 425.5,539.5 C 426.833,540.167 426.833,540.167 425.5,539.5 Z"/></g>
<g><path style="opacity:1" fill="#22898d" d="M 237.5,504.5 C 238.67,506.65 239.67,508.984 240.5,511.5C 237.914,512.48 235.247,512.813 232.5,512.5C 231.491,517.796 231.324,523.129 232,528.5C 234.133,530.138 236.633,530.971 239.5,531C 242.324,538.681 239.657,541.514 231.5,539.5C 231.5,544.167 231.5,548.833 231.5,553.5C 233.5,553.5 235.5,553.5 237.5,553.5C 239.202,555.8 239.868,558.467 239.5,561.5C 233.5,561.5 227.5,561.5 221.5,561.5C 221.831,554.137 221.497,546.803 220.5,539.5C 219.914,539.291 219.414,538.957 219,538.5C 218.503,535.854 218.336,533.187 218.5,530.5C 219.791,530.737 220.791,530.404 221.5,529.5C 222.493,521.35 222.826,513.017 222.5,504.5C 227.5,504.5 232.5,504.5 237.5,504.5 Z"/></g>
<g><path style="opacity:1" fill="#268b8e" d="M 197.5,503.5 C 198.156,504.622 198.489,505.955 198.5,507.5C 196.43,521.344 194.43,535.177 192.5,549C 192.818,551.375 194.151,552.542 196.5,552.5C 198.922,536.868 201.089,521.202 203,505.5C 203.674,504.422 204.674,503.755 206,503.5C 208.449,503.861 210.782,504.528 213,505.5C 211.744,521.214 209.744,536.881 207,552.5C 205.876,556.804 203.376,559.804 199.5,561.5C 196.167,561.5 192.833,561.5 189.5,561.5C 184.848,558.536 182.515,554.202 182.5,548.5C 184.304,534.788 186.304,521.121 188.5,507.5C 189.434,506.432 189.768,505.099 189.5,503.5C 192.167,503.5 194.833,503.5 197.5,503.5 Z"/></g>
<g><path style="opacity:0.004" fill="#fefffe" d="M 437.5,548.5 C 438.833,549.167 438.833,549.167 437.5,548.5 Z"/></g>
<g><path style="opacity:0.004" fill="#fefffe" d="M 119.5,554.5 C 120.833,555.167 120.833,555.167 119.5,554.5 Z"/></g>
<g><path style="opacity:0.169" fill="#a9cfd1" d="M 237.5,553.5 C 238.5,553.5 239.5,553.5 240.5,553.5C 240.5,556.167 240.5,558.833 240.5,561.5C 240.167,561.5 239.833,561.5 239.5,561.5C 239.868,558.467 239.202,555.8 237.5,553.5 Z"/></g>
<g><path style="opacity:0.031" fill="#b7e7e7" d="M 268.5,557.5 C 267.713,559.104 266.38,559.771 264.5,559.5C 265.514,558.326 266.847,557.66 268.5,557.5 Z"/></g>
</svg>
